<svg width="150" height="49" viewBox="0 0 150 49" fill="none" xmlns="http://www.w3.org/2000/svg">
<path d="M97.2663 14.4663C96.9344 14.3701 96.586 14.5609 96.5038 14.8966C95.7633 17.9224 95.99 21.1104 97.1609 24.0084C98.4101 27.1001 100.661 29.6826 103.554 31.3417C106.446 33.0007 109.812 33.6401 113.112 33.1572C116.411 32.6744 119.452 31.0973 121.748 28.6789C124.044 26.2606 125.461 23.1412 125.772 19.8211C126.083 16.5011 125.269 13.1728 123.462 10.3703C121.655 7.5678 118.96 5.45345 115.807 4.36647C112.853 3.34759 109.657 3.28672 106.674 4.18341C106.343 4.28288 106.171 4.64071 106.284 4.96717C106.397 5.29365 106.753 5.46499 107.085 5.3668C109.803 4.5613 112.71 4.62208 115.399 5.54953C118.287 6.5451 120.756 8.48163 122.411 11.0485C124.066 13.6153 124.811 16.6636 124.526 19.7045C124.241 22.7453 122.943 25.6024 120.841 27.8173C118.738 30.0323 115.952 31.4767 112.93 31.919C109.909 32.3612 106.826 31.7756 104.177 30.2561C101.527 28.7366 99.4653 26.3713 98.3212 23.5396C97.2553 20.9016 97.0437 18.0013 97.7069 15.2452C97.7878 14.9093 97.5982 14.5625 97.2663 14.4663Z" fill="#1E1B59"/>
<path d="M101.385 20.4462C101.042 20.5185 100.819 20.8566 100.912 21.1954C101.472 23.2315 102.639 25.0548 104.265 26.4177C106.054 27.9172 108.294 28.7724 110.627 28.846C112.96 28.9197 115.25 28.2076 117.13 26.8239C119.01 25.4403 120.37 23.4653 120.994 21.2158C121.617 18.9663 121.466 16.5727 120.566 14.419C119.666 12.2653 118.069 10.4763 116.031 9.33898C113.992 8.20168 111.631 7.78201 109.326 8.14729C107.231 8.4793 105.292 9.44226 103.764 10.9002C103.51 11.1428 103.527 11.5471 103.784 11.786C104.042 12.025 104.443 12.0079 104.7 11.7674C106.032 10.5176 107.711 9.69173 109.525 9.40438C111.549 9.08373 113.621 9.45212 115.411 10.4505C117.2 11.4488 118.602 13.0192 119.392 14.9097C120.182 16.8003 120.314 18.9014 119.767 20.876C119.22 22.8506 118.026 24.5843 116.376 25.7989C114.725 27.0135 112.715 27.6385 110.667 27.5739C108.619 27.5092 106.653 26.7586 105.082 25.4423C103.675 24.2627 102.66 22.6901 102.161 20.9331C102.065 20.595 101.729 20.3739 101.385 20.4462Z" fill="#6F6AF8"/>
<path d="M107.3 21.2311C107.044 21.4332 106.999 21.807 107.229 22.0381C107.907 22.7203 108.764 23.2043 109.707 23.4306C110.841 23.703 112.035 23.5864 113.095 23.0993C114.156 22.6123 115.022 21.7831 115.555 20.7449C116.088 19.7066 116.257 18.5193 116.035 17.3736C115.812 16.2279 115.211 15.1902 114.328 14.4268C113.446 13.6635 112.332 13.2188 111.166 13.1641C110 13.1093 108.85 13.4478 107.9 14.1252C107.11 14.6879 106.497 15.4574 106.123 16.3438C105.996 16.6441 106.179 16.9737 106.491 17.0655C106.804 17.1572 107.128 16.9756 107.264 16.6798C107.556 16.0456 108.01 15.4951 108.584 15.086C109.319 14.5621 110.209 14.3003 111.111 14.3426C112.013 14.3849 112.874 14.7289 113.557 15.3193C114.24 15.9097 114.704 16.7124 114.876 17.5985C115.048 18.4847 114.918 19.403 114.506 20.206C114.093 21.0091 113.423 21.6505 112.603 22.0271C111.783 22.4038 110.86 22.4941 109.982 22.2834C109.296 22.1188 108.67 21.7781 108.161 21.2995C107.924 21.0762 107.556 21.029 107.3 21.2311Z" fill="#FFD600"/>
<path d="M2.45535 4.01292H19.7092V7.44156H6.19367V16.909H19.4437V20.2492H6.19367V29.783H19.7092V33.2117H2.45535V4.01292ZM33.5737 33.7426C31.9073 33.7426 30.4105 33.3444 29.0833 32.5481C27.7708 31.7517 26.7312 30.6383 25.9644 29.2079C25.2123 27.7627 24.8362 26.0742 24.8362 24.1424C24.8362 22.2105 25.2123 20.5294 25.9644 19.0989C26.7312 17.6537 27.7708 16.533 29.0833 15.7367C30.4105 14.9256 31.9073 14.52 33.5737 14.52C34.9157 14.52 36.0954 14.756 37.113 15.2279C38.1305 15.685 38.9416 16.2233 39.5462 16.8427C40.1508 17.462 40.4974 18.0003 40.5858 18.4575V2.77419H44.4569V33.2117H40.6522V29.6724C40.49 30.1738 40.0845 30.7416 39.4356 31.3757C38.8015 32.0098 37.983 32.5628 36.9802 33.0347C35.9775 33.5066 34.842 33.7426 33.5737 33.7426ZM34.4585 30.5572C35.5793 30.5572 36.6042 30.2918 37.5333 29.7609C38.4623 29.23 39.1996 28.4853 39.7453 27.5268C40.3057 26.5535 40.5858 25.4253 40.5858 24.1424C40.5858 22.8594 40.3057 21.7386 39.7453 20.7801C39.1996 19.8068 38.4623 19.0547 37.5333 18.5238C36.6042 17.9782 35.5793 17.7054 34.4585 17.7054C33.4263 17.7054 32.4677 17.9708 31.5829 18.5017C30.6981 19.0326 29.9829 19.7773 29.4372 20.7358C28.9063 21.6944 28.6409 22.8299 28.6409 24.1424C28.6409 25.4548 28.9063 26.5903 29.4372 27.5489C29.9829 28.5074 30.6981 29.2521 31.5829 29.783C32.4677 30.2992 33.4263 30.5572 34.4585 30.5572ZM46.9527 15.0509H51.0892L57.0174 29.6503L62.9456 15.0509H67.06L59.2958 33.2117H54.7611L46.9527 15.0509ZM71.0911 33.2117V15.0509H74.94V33.2117H71.0911ZM73.0598 8.83514C72.3667 8.83514 71.7694 8.59182 71.268 8.10517C70.7814 7.60378 70.5381 7.00653 70.5381 6.31343C70.5381 5.62033 70.7814 5.02308 71.268 4.52169C71.7694 4.02029 72.3667 3.7696 73.0598 3.7696C73.5169 3.7696 73.9372 3.88757 74.3206 4.12352C74.7188 4.35947 75.0359 4.66916 75.2718 5.05257C75.5078 5.42124 75.6257 5.84153 75.6257 6.31343C75.6257 7.00653 75.375 7.60378 74.8736 8.10517C74.3722 8.59182 73.7676 8.83514 73.0598 8.83514ZM84.6062 33.2117H80.7794V15.0509H84.6062V18.192H84.4956C84.5693 17.8086 84.8422 17.3293 85.3141 16.7542C85.786 16.1791 86.4348 15.6629 87.2606 15.2058C88.0865 14.7486 89.0745 14.52 90.2248 14.52C91.0653 14.52 91.8027 14.638 92.4368 14.874C93.0856 15.0952 93.5428 15.3164 93.8082 15.5376L92.2377 18.7229C92.0312 18.5164 91.6699 18.31 91.1538 18.1035C90.6377 17.8823 89.9962 17.7717 89.2293 17.7717C88.2561 17.7717 87.4229 18.074 86.7298 18.6787C86.0367 19.2833 85.5058 20.0132 85.1371 20.8686C84.7832 21.7091 84.6062 22.4907 84.6062 23.2133V33.2117ZM139.495 14.52C140.689 14.52 141.847 14.7707 142.967 15.2721C144.103 15.7735 145.032 16.5699 145.755 17.6611C146.492 18.7376 146.861 20.146 146.861 21.8861V33.2117H142.967V22.6382C142.967 20.8391 142.547 19.534 141.707 18.7229C140.866 17.8971 139.782 17.4842 138.455 17.4842C137.585 17.4842 136.744 17.7349 135.933 18.2363C135.137 18.7229 134.481 19.4013 133.964 20.2713C133.448 21.1266 133.19 22.0999 133.19 23.1912V33.2117H129.341V15.0509H133.19V18.2805C133.323 17.7791 133.684 17.2335 134.274 16.6436C134.864 16.0537 135.616 15.5523 136.53 15.1394C137.445 14.7265 138.433 14.52 139.495 14.52Z" fill="#1E1B59"/>
<path d="M26.4744 37.4306C26.8947 37.4306 27.256 37.4786 27.5583 37.5744C27.8643 37.6703 28.104 37.7716 28.2772 37.8786C28.4542 37.9855 28.5593 38.0555 28.5924 38.0887L28.1058 38.8684C28.0505 38.8205 27.9528 38.7523 27.8127 38.6638C27.6726 38.5717 27.4975 38.4906 27.2873 38.4205C27.0772 38.3468 26.8376 38.3099 26.5684 38.3099C26.1518 38.3099 25.8219 38.3947 25.5786 38.5643C25.3389 38.7302 25.2191 38.9661 25.2191 39.2721C25.2191 39.4786 25.2818 39.6611 25.4071 39.8196C25.5362 39.9745 25.7168 40.1164 25.9491 40.2454C26.1813 40.3745 26.4523 40.5072 26.762 40.6436C27.0164 40.7505 27.2652 40.8722 27.5085 41.0086C27.7556 41.145 27.9786 41.3054 28.1777 41.4897C28.3805 41.674 28.5408 41.8879 28.6588 42.1312C28.7805 42.3745 28.8413 42.6547 28.8413 42.9718C28.8413 43.2851 28.7768 43.5672 28.6477 43.8179C28.5224 44.0686 28.3436 44.2824 28.1113 44.4593C27.8827 44.6326 27.6155 44.7653 27.3095 44.8575C27.0035 44.9497 26.6735 44.9958 26.3196 44.9958C25.8735 44.9958 25.4698 44.9405 25.1085 44.8299C24.7509 44.7193 24.4615 44.6031 24.2403 44.4815C24.0228 44.3598 23.8974 44.2842 23.8642 44.2547L24.3785 43.4418C24.4228 43.4787 24.5039 43.534 24.6219 43.6077C24.7398 43.6778 24.8855 43.7515 25.0587 43.8289C25.232 43.9063 25.4274 43.9727 25.6449 44.028C25.8624 44.0796 26.0947 44.1054 26.3417 44.1054C26.8357 44.1054 27.2099 43.9948 27.4643 43.7736C27.7187 43.5524 27.8459 43.2685 27.8459 42.922C27.8459 42.6565 27.7648 42.428 27.6026 42.2363C27.4403 42.0445 27.2247 41.8731 26.9555 41.722C26.6864 41.5708 26.3896 41.4252 26.0652 41.2851C25.7334 41.1339 25.4292 40.968 25.1527 40.7874C24.8762 40.6067 24.6532 40.3911 24.4836 40.1404C24.3177 39.886 24.2347 39.58 24.2347 39.2224C24.2347 38.8684 24.3343 38.5569 24.5334 38.2878C24.7361 38.0187 25.0071 37.8085 25.3463 37.6574C25.6892 37.5062 26.0652 37.4306 26.4744 37.4306ZM33.5896 44.0612C34.0431 44.0612 34.4357 43.9985 34.7675 43.8732C35.103 43.7478 35.3408 43.6261 35.4809 43.5082L35.8957 44.3211C35.7298 44.4686 35.4404 44.6179 35.0275 44.769C34.6182 44.9202 34.1261 44.9958 33.5509 44.9958C33.0127 44.9958 32.5131 44.8999 32.0523 44.7082C31.5914 44.5165 31.1877 44.2492 30.8412 43.9063C30.4983 43.5635 30.2292 43.1635 30.0338 42.7063C29.8421 42.2492 29.7462 41.7551 29.7462 41.2243C29.7462 40.6934 29.8421 40.1975 30.0338 39.7367C30.2255 39.2758 30.4928 38.874 30.8357 38.5311C31.1822 38.1846 31.5859 37.9154 32.0467 37.7237C32.5113 37.5283 33.0127 37.4306 33.5509 37.4306C34.1261 37.4306 34.6182 37.5062 35.0275 37.6574C35.4404 37.8085 35.7298 37.9578 35.8957 38.1053L35.4809 38.9182C35.3408 38.7966 35.103 38.6749 34.7675 38.5532C34.4357 38.4279 34.0431 38.3652 33.5896 38.3652C33.1767 38.3652 32.7988 38.4353 32.456 38.5754C32.1131 38.7154 31.8145 38.9145 31.5601 39.1726C31.3094 39.427 31.114 39.7274 30.9739 40.074C30.8375 40.4206 30.7693 40.7984 30.7693 41.2077C30.7693 41.6206 30.8375 42.0021 30.9739 42.3524C31.114 42.6989 31.3094 43.0012 31.5601 43.2593C31.8145 43.5137 32.1131 43.7109 32.456 43.851C32.7988 43.9911 33.1767 44.0612 33.5896 44.0612ZM41.4737 41.6279H37.9732V44.863H37.0386V37.5633H37.9732V40.7763H41.4737V37.5633H42.4083V44.863H41.4737V41.6279ZM44.511 41.2077C44.511 41.7496 44.6234 42.2381 44.8483 42.6731C45.0769 43.1082 45.3903 43.4547 45.7884 43.7128C46.1866 43.9672 46.6438 44.0944 47.1599 44.0944C47.6797 44.0944 48.1369 43.9672 48.5314 43.7128C48.9295 43.4547 49.241 43.1082 49.4659 42.6731C49.6908 42.2381 49.8033 41.7496 49.8033 41.2077C49.8033 40.6657 49.6908 40.1791 49.4659 39.7477C49.241 39.3127 48.9295 38.968 48.5314 38.7136C48.1369 38.4592 47.6797 38.332 47.1599 38.332C46.6438 38.332 46.1866 38.4592 45.7884 38.7136C45.3903 38.968 45.0769 39.3127 44.8483 39.7477C44.6234 40.1791 44.511 40.6657 44.511 41.2077ZM43.5322 41.2077C43.5322 40.6768 43.6225 40.1828 43.8031 39.7256C43.9875 39.2648 44.2437 38.8629 44.5718 38.5201C44.8999 38.1772 45.2834 37.9099 45.7221 37.7182C46.1645 37.5265 46.6438 37.4306 47.1599 37.4306C47.6797 37.4306 48.159 37.5265 48.5977 37.7182C49.0401 37.9099 49.4235 38.1772 49.748 38.5201C50.0761 38.8629 50.3305 39.2648 50.5111 39.7256C50.6918 40.1828 50.7821 40.6768 50.7821 41.2077C50.7821 41.7422 50.6918 42.2399 50.5111 42.7008C50.3342 43.1579 50.0816 43.5598 49.7535 43.9063C49.4291 44.2492 49.0475 44.5165 48.6088 44.7082C48.1701 44.8999 47.6871 44.9958 47.1599 44.9958C46.6327 44.9958 46.1461 44.8999 45.7 44.7082C45.2576 44.5165 44.8741 44.2492 44.5497 43.9063C44.2253 43.5598 43.9746 43.1579 43.7976 42.7008C43.6207 42.2399 43.5322 41.7422 43.5322 41.2077ZM52.5037 41.2077C52.5037 41.7496 52.6161 42.2381 52.841 42.6731C53.0696 43.1082 53.3829 43.4547 53.7811 43.7128C54.1793 43.9672 54.6364 44.0944 55.1526 44.0944C55.6724 44.0944 56.1295 43.9672 56.524 43.7128C56.9222 43.4547 57.2337 43.1082 57.4586 42.6731C57.6835 42.2381 57.7959 41.7496 57.7959 41.2077C57.7959 40.6657 57.6835 40.1791 57.4586 39.7477C57.2337 39.3127 56.9222 38.968 56.524 38.7136C56.1295 38.4592 55.6724 38.332 55.1526 38.332C54.6364 38.332 54.1793 38.4592 53.7811 38.7136C53.3829 38.968 53.0696 39.3127 52.841 39.7477C52.6161 40.1791 52.5037 40.6657 52.5037 41.2077ZM51.5248 41.2077C51.5248 40.6768 51.6152 40.1828 51.7958 39.7256C51.9802 39.2648 52.2364 38.8629 52.5645 38.5201C52.8926 38.1772 53.276 37.9099 53.7148 37.7182C54.1572 37.5265 54.6364 37.4306 55.1526 37.4306C55.6724 37.4306 56.1517 37.5265 56.5904 37.7182C57.0328 37.9099 57.4162 38.1772 57.7406 38.5201C58.0688 38.8629 58.3231 39.2648 58.5038 39.7256C58.6844 40.1828 58.7748 40.6768 58.7748 41.2077C58.7748 41.7422 58.6844 42.2399 58.5038 42.7008C58.3268 43.1579 58.0743 43.5598 57.7462 43.9063C57.4217 44.2492 57.0402 44.5165 56.6014 44.7082C56.1627 44.8999 55.6798 44.9958 55.1526 44.9958C54.6254 44.9958 54.1387 44.8999 53.6926 44.7082C53.2502 44.5165 52.8668 44.2492 52.5424 43.9063C52.2179 43.5598 51.9673 43.1579 51.7903 42.7008C51.6133 42.2399 51.5248 41.7422 51.5248 41.2077ZM59.877 37.5633H60.8226V44.0059H63.6927V44.863H59.877V37.5633ZM67.2155 37.4306C67.6357 37.4306 67.997 37.4786 68.2994 37.5744C68.6053 37.6703 68.845 37.7716 69.0183 37.8786C69.1952 37.9855 69.3003 38.0555 69.3335 38.0887L68.8468 38.8684C68.7915 38.8205 68.6938 38.7523 68.5537 38.6638C68.4136 38.5717 68.2385 38.4906 68.0284 38.4205C67.8182 38.3468 67.5786 38.3099 67.3095 38.3099C66.8929 38.3099 66.5629 38.3947 66.3196 38.5643C66.08 38.7302 65.9601 38.9661 65.9601 39.2721C65.9601 39.4786 66.0228 39.6611 66.1482 39.8196C66.2772 39.9745 66.4578 40.1164 66.6901 40.2454C66.9224 40.3745 67.1933 40.5072 67.503 40.6436C67.7574 40.7505 68.0063 40.8722 68.2496 41.0086C68.4966 41.145 68.7196 41.3054 68.9187 41.4897C69.1215 41.674 69.2819 41.8879 69.3998 42.1312C69.5215 42.3745 69.5823 42.6547 69.5823 42.9718C69.5823 43.2851 69.5178 43.5672 69.3888 43.8179C69.2634 44.0686 69.0846 44.2824 68.8524 44.4593C68.6238 44.6326 68.3565 44.7653 68.0505 44.8575C67.7445 44.9497 67.4145 44.9958 67.0606 44.9958C66.6145 44.9958 66.2108 44.9405 65.8495 44.8299C65.4919 44.7193 65.2025 44.6031 64.9813 44.4815C64.7638 44.3598 64.6384 44.2842 64.6053 44.2547L65.1196 43.4418C65.1638 43.4787 65.2449 43.534 65.3629 43.6077C65.4809 43.6778 65.6265 43.7515 65.7998 43.8289C65.973 43.9063 66.1684 43.9727 66.3859 44.028C66.6035 44.0796 66.8357 44.1054 67.0827 44.1054C67.5768 44.1054 67.951 43.9948 68.2053 43.7736C68.4597 43.5524 68.5869 43.2685 68.5869 42.922C68.5869 42.6565 68.5058 42.428 68.3436 42.2363C68.1814 42.0445 67.9657 41.8731 67.6966 41.722C67.4274 41.5708 67.1307 41.4252 66.8062 41.2851C66.4744 41.1339 66.1703 40.968 65.8938 40.7874C65.6173 40.6067 65.3942 40.3911 65.2246 40.1404C65.0587 39.886 64.9758 39.58 64.9758 39.2224C64.9758 38.8684 65.0753 38.5569 65.2744 38.2878C65.4772 38.0187 65.7481 37.8085 66.0873 37.6574C66.4302 37.5062 66.8062 37.4306 67.2155 37.4306ZM75.813 37.4306C76.2333 37.4306 76.5946 37.4786 76.8969 37.5744C77.2029 37.6703 77.4425 37.7716 77.6158 37.8786C77.7927 37.9855 77.8978 38.0555 77.931 38.0887L77.4444 38.8684C77.3891 38.8205 77.2914 38.7523 77.1513 38.6638C77.0112 38.5717 76.836 38.4906 76.6259 38.4205C76.4158 38.3468 76.1761 38.3099 75.907 38.3099C75.4904 38.3099 75.1604 38.3947 74.9171 38.5643C74.6775 38.7302 74.5577 38.9661 74.5577 39.2721C74.5577 39.4786 74.6203 39.6611 74.7457 39.8196C74.8747 39.9745 75.0554 40.1164 75.2876 40.2454C75.5199 40.3745 75.7909 40.5072 76.1005 40.6436C76.3549 40.7505 76.6038 40.8722 76.8471 41.0086C77.0941 41.145 77.3172 41.3054 77.5162 41.4897C77.719 41.674 77.8794 41.8879 77.9974 42.1312C78.119 42.3745 78.1799 42.6547 78.1799 42.9718C78.1799 43.2851 78.1153 43.5672 77.9863 43.8179C77.861 44.0686 77.6821 44.2824 77.4499 44.4593C77.2213 44.6326 76.954 44.7653 76.648 44.8575C76.342 44.9497 76.0121 44.9958 75.6581 44.9958C75.2121 44.9958 74.8084 44.9405 74.4471 44.8299C74.0894 44.7193 73.8 44.6031 73.5788 44.4815C73.3613 44.3598 73.236 44.2842 73.2028 44.2547L73.7171 43.4418C73.7613 43.4787 73.8424 43.534 73.9604 43.6077C74.0784 43.6778 74.224 43.7515 74.3973 43.8289C74.5706 43.9063 74.766 43.9727 74.9835 44.028C75.201 44.0796 75.4333 44.1054 75.6803 44.1054C76.1743 44.1054 76.5485 43.9948 76.8029 43.7736C77.0572 43.5524 77.1844 43.2685 77.1844 42.922C77.1844 42.6565 77.1033 42.428 76.9411 42.2363C76.7789 42.0445 76.5632 41.8731 76.2941 41.722C76.025 41.5708 75.7282 41.4252 75.4038 41.2851C75.072 41.1339 74.7678 40.968 74.4913 40.7874C74.2148 40.6067 73.9917 40.3911 73.8222 40.1404C73.6563 39.886 73.5733 39.58 73.5733 39.2224C73.5733 38.8684 73.6728 38.5569 73.8719 38.2878C74.0747 38.0187 74.3457 37.8085 74.6849 37.6574C75.0277 37.5062 75.4038 37.4306 75.813 37.4306ZM79.4664 37.5633H80.4175V44.863H79.4664V37.5633ZM88.5733 37.5633V44.863H87.6332V39.5929L87.6829 38.7855L87.4838 39.6758L85.7253 44.4483H84.7907L83.0321 39.6758L82.8386 38.7855L82.8828 39.5929V44.863H81.9372V37.5633H83.198L85.1889 43.2925L85.2552 43.663L85.3271 43.2925L87.3235 37.5633H88.5733ZM90.1748 37.5633H92.2431C92.7002 37.5633 93.1113 37.6389 93.4763 37.7901C93.8449 37.9376 94.138 38.1698 94.3556 38.4869C94.5731 38.8039 94.6818 39.2168 94.6818 39.7256C94.6818 40.2307 94.5731 40.6491 94.3556 40.9809C94.138 41.3127 93.8449 41.5616 93.4763 41.7275C93.1113 41.8897 92.7002 41.9708 92.2431 41.9708H91.1205V44.863H90.1748V37.5633ZM91.1205 41.18H91.9832C92.2965 41.18 92.5804 41.1339 92.8348 41.0418C93.0929 40.9496 93.2975 40.7984 93.4486 40.5883C93.6035 40.3782 93.6809 40.0961 93.6809 39.7422C93.6809 39.3846 93.6035 39.1062 93.4486 38.9072C93.2975 38.7044 93.0929 38.5624 92.8348 38.4813C92.5804 38.3965 92.2965 38.3541 91.9832 38.3541H91.1205V41.18ZM95.8548 37.5633H96.8004V44.0059H99.6706V44.863H95.8548V37.5633ZM101.003 37.5633H101.955V44.863H101.003V37.5633ZM103.502 37.5633H107.307V38.4205H104.442V40.7763H107.113V41.6279H104.442V44.863H103.502V37.5633ZM108.618 37.5633H109.569V44.863H108.618V37.5633ZM111.122 37.5633H115.435V38.4205H112.057V40.7874H115.369V41.6224H112.057V44.0059H115.435V44.863H111.122V37.5633ZM116.905 37.5633H118.625C119.403 37.5633 120.043 37.72 120.544 38.0334C121.049 38.3431 121.423 38.7726 121.667 39.3219C121.91 39.8712 122.032 40.4998 122.032 41.2077C122.032 41.9192 121.91 42.5496 121.667 43.0989C121.423 43.6483 121.051 44.0796 120.55 44.393C120.048 44.7064 119.407 44.863 118.625 44.863H116.905V37.5633ZM117.845 38.426V44.0003H118.548C119.123 44.0003 119.593 43.8805 119.958 43.6409C120.323 43.4013 120.592 43.0731 120.765 42.6565C120.942 42.2363 121.033 41.757 121.036 41.2187C121.036 40.6768 120.95 40.1975 120.776 39.7809C120.603 39.3606 120.332 39.0307 119.963 38.791C119.595 38.5477 119.123 38.426 118.548 38.426H117.845Z" fill="#1E1B59"/>
</svg>
